solid 100cmx100cm bar
   facet normal 1.000000e+000 -2.775558e-016 0.000000e+000
      outer loop
         vertex 1.000000e+002 1.000000e+002 3.000000e+001
         vertex 1.000000e+002 0.000000e+000 3.000000e+001
         vertex 1.000000e+002 1.000000e+002 0.000000e+000
      endloop
   endfacet
   facet normal 1.000000e+000 -2.775558e-016 0.000000e+000
      outer loop
         vertex 1.000000e+002 1.000000e+002 0.000000e+000
         vertex 1.000000e+002 0.000000e+000 3.000000e+001
         vertex 1.000000e+002 0.000000e+000 0.000000e+000
      endloop
   endfacet
   facet normal -6.938894e-017 1.000000e+000 0.000000e+000
      outer loop
         vertex 0.000000e+000 1.000000e+002 3.000000e+001
         vertex 1.000000e+002 1.000000e+002 3.000000e+001
         vertex 0.000000e+000 1.000000e+002 0.000000e+000
      endloop
   endfacet
   facet normal -6.938894e-017 1.000000e+000 0.000000e+000
      outer loop
         vertex 0.000000e+000 1.000000e+002 0.000000e+000
         vertex 1.000000e+002 1.000000e+002 3.000000e+001
         vertex 1.000000e+002 1.000000e+002 0.000000e+000
      endloop
   endfacet
   facet normal -1.000000e+000 0.000000e+000 0.000000e+000
      outer loop
         vertex 0.000000e+000 0.000000e+000 3.000000e+001
         vertex 0.000000e+000 1.000000e+002 3.000000e+001
         vertex 0.000000e+000 0.000000e+000 0.000000e+000
      endloop
   endfacet
   facet normal -1.000000e+000 0.000000e+000 0.000000e+000
      outer loop
         vertex 0.000000e+000 0.000000e+000 0.000000e+000
         vertex 0.000000e+000 1.000000e+002 3.000000e+001
         vertex 0.000000e+000 1.000000e+002 0.000000e+000
      endloop
   endfacet
   facet normal 6.938894e-017 -1.000000e+000 0.000000e+000
      outer loop
         vertex 1.000000e+002 0.000000e+000 3.000000e+001
         vertex 0.000000e+000 0.000000e+000 3.000000e+001
         vertex 1.000000e+002 0.000000e+000 0.000000e+000
      endloop
   endfacet
   facet normal 6.938894e-017 -1.000000e+000 0.000000e+000
      outer loop
         vertex 1.000000e+002 0.000000e+000 0.000000e+000
         vertex 0.000000e+000 0.000000e+000 3.000000e+001
         vertex 0.000000e+000 0.000000e+000 0.000000e+000
      endloop
   endfacet
   facet normal 0.000000e+000 0.000000e+000 1.000000e+000
      outer loop
         vertex 0.000000e+000 1.000000e+002 3.000000e+001
         vertex 0.000000e+000 0.000000e+000 3.000000e+001
         vertex 1.000000e+002 1.000000e+002 3.000000e+001
      endloop
   endfacet
   facet normal 0.000000e+000 0.000000e+000 1.000000e+000
      outer loop
         vertex 1.000000e+002 1.000000e+002 3.000000e+001
         vertex 0.000000e+000 0.000000e+000 3.000000e+001
         vertex 1.000000e+002 0.000000e+000 3.000000e+001
      endloop
   endfacet
   facet normal 0.000000e+000 0.000000e+000 -1.000000e+000
      outer loop
         vertex 0.000000e+000 0.000000e+000 0.000000e+000
         vertex 0.000000e+000 1.000000e+002 0.000000e+000
         vertex 1.000000e+002 0.000000e+000 0.000000e+000
      endloop
   endfacet
   facet normal 0.000000e+000 0.000000e+000 -1.000000e+000
      outer loop
         vertex 1.000000e+002 0.000000e+000 0.000000e+000
         vertex 0.000000e+000 1.000000e+002 0.000000e+000
         vertex 1.000000e+002 1.000000e+002 0.000000e+000
      endloop
   endfacet
endsolid